<?xml version="1.0" encoding="UTF-8" standalone="no"?>
<svg
   xmlns:dc="http://purl.org/dc/elements/1.1/"
   xmlns:cc="http://creativecommons.org/ns#"
   xmlns:rdf="http://www.w3.org/1999/02/22-rdf-syntax-ns#"
   xmlns:svg="http://www.w3.org/2000/svg"
   xmlns="http://www.w3.org/2000/svg"
   style="shape-rendering:crispEdges"
   id="qr-logo"
   version="1.1"
   viewBox="0 0 256 256"
   height="256"
   width="256">
  <defs
     id="defs2" />
  <g
     transform="translate(0,240)"
     id="layer2">
    <rect
       y="-240"
       x="0"
       height="256"
       width="256"
       id="rect41"
       style="fill:#f5f5f5;fill-opacity:1;stroke:none;stroke-width:0;stroke-miterlimit:4;stroke-dasharray:none;stroke-opacity:1" />
  </g>
  <g
     transform="translate(0,-229.26668)"
     id="layer1">
    <path
       d="M 32,453.26668 V 437.26668 H 48 V 453.26668 Z M 32,437.26668 V 421.26668 H 48 V 437.26668 Z M 32,421.26668 V 405.26668 H 48 V 421.26668 Z M 96,405.26668 V 389.26668 H 112 V 405.26668 Z M 80,405.26668 V 389.26668 H 96 V 405.26668 Z M 64,405.26668 V 389.26668 H 80 V 405.26668 Z M 48,405.26668 V 389.26668 H 64 V 405.26668 Z M 32,405.26668 V 389.26668 H 48 V 405.26668 Z M 112,389.26668 V 373.26668 H 128 V 389.26668 Z M 32,389.26668 V 373.26668 H 48 V 389.26668 Z M 112,373.26668 V 357.26668 H 128 V 373.26668 Z M 32,373.26668 V 357.26668 H 48 V 373.26668 Z M 112,357.26668 V 341.26668 H 128 V 357.26668 Z M 32,357.26668 V 341.26668 H 48 V 357.26668 Z M 112,341.26668 V 325.26668 H 128 V 341.26668 Z M 32,341.26668 V 325.26668 H 48 V 341.26668 Z M 96,325.26668 V 309.26668 H 112 V 325.26668 Z M 80,325.26668 V 309.26668 H 96 V 325.26668 Z M 64,325.26668 V 309.26668 H 80 V 325.26668 Z M 48,325.26668 V 309.26668 H 64 V 325.26668 Z M 32,325.26668 V 309.26668 H 48 V 325.26668 Z"
       style="fill:#363636;fill-opacity:1;stroke:none;stroke-width:4"
       id="path4737" />
    <path
       d="M 160,405.26668 V 389.26652 H 176.00002 V 405.26668 Z M 160,389.26652 V 373.26668 H 176.00002 V 389.26652 Z M 160,373.26668 V 357.26668 H 176.00002 V 373.26668 Z M 160,357.26668 V 341.26652 H 176.00002 V 357.26668 Z M 160,341.26652 V 325.26668 H 176.00002 V 341.26652 Z M 224.00002,325.26668 V 309.26668 H 240 V 325.26668 Z M 208,325.26668 V 309.26668 H 224.00002 V 325.26668 Z M 192,325.26668 V 309.26668 H 208 V 325.26668 Z M 176.00002,325.26668 V 309.26668 H 192 V 325.26668 Z"
       style="fill:#363636;fill-opacity:1;stroke:none;stroke-width:4.00000048"
       id="path4740" />
  </g>
  <metadata
     id="metadata6334">
    <rdf:RDF>
      <cc:Work
         rdf:about="">
        <dc:title></dc:title>
        <dc:format>image/svg+xml</dc:format>
        <dc:type
           rdf:resource="http://purl.org/dc/dcmitype/StillImage" />
      </cc:Work>
    </rdf:RDF>
  </metadata>
</svg>
