<?xml version="1.0" encoding="UTF-8" standalone="no"?>
<!-- Created with Inkscape (http://www.inkscape.org/) -->

<svg
   xmlns:dc="http://purl.org/dc/elements/1.1/"
   xmlns:cc="http://creativecommons.org/ns#"
   xmlns:rdf="http://www.w3.org/1999/02/22-rdf-syntax-ns#"
   xmlns:svg="http://www.w3.org/2000/svg"
   xmlns="http://www.w3.org/2000/svg"
   xmlns:sodipodi="http://sodipodi.sourceforge.net/DTD/sodipodi-0.dtd"
   xmlns:inkscape="http://www.inkscape.org/namespaces/inkscape"
   width="200"
   height="280"
   viewBox="0 0 200 280"
   version="1.1"
   id="qr-logo"
   inkscape:version="0.92.2 5c3e80d, 2017-08-06"
   sodipodi:docname="qr-logo-200x280.svg"
   style="shape-rendering:crispEdges">
  <defs
     id="defs2" />
  <sodipodi:namedview
     id="base"
     pagecolor="#ffffff"
     bordercolor="#4cf5ed"
     borderopacity="1"
     inkscape:pageopacity="0.0"
     inkscape:pageshadow="2"
     inkscape:zoom="1"
     inkscape:cx="55.574603"
     inkscape:cy="-5.1298728"
     inkscape:document-units="px"
     inkscape:current-layer="layer1"
     showgrid="true"
     showguides="false"
     inkscape:window-width="1440"
     inkscape:window-height="855"
     inkscape:window-x="0"
     inkscape:window-y="1"
     inkscape:window-maximized="1"
     inkscape:pagecheckerboard="false"
     units="px"
     showborder="true"
     inkscape:showpageshadow="false"
     borderlayer="false"
     inkscape:object-nodes="false"
     inkscape:snap-page="true"
     inkscape:measure-start="0,0"
     inkscape:measure-end="0,0">
    <inkscape:grid
       type="xygrid"
       id="grid4701"
       empspacing="8"
       spacingx="4"
       spacingy="4"
       dotted="false" />
  </sodipodi:namedview>
  <g
     inkscape:label="Layer 1"
     inkscape:groupmode="layer"
     id="layer1"
     transform="translate(0,-205.26668)">
    <g
       id="g6891"
       transform="matrix(2,0,0,2,0,-485.26674)">
      <path
         id="path3958"
         d="M 0,345.26671 H 3.999995 V 349.26669 H 0 Z M 3.999995,345.26671 H 8.0000045 V 349.26669 H 3.999995 Z M 8.0000045,345.26671 H 11.999997 V 349.26669 H 8.0000045 Z M 11.999997,345.26671 H 15.999995 V 349.26669 H 11.999997 Z M 15.999995,345.26671 H 20.000007 V 349.26669 H 15.999995 Z M 20.000007,345.26671 H 23.999996 V 349.26669 H 20.000007 Z M 23.999996,345.26671 H 27.999997 V 349.26669 H 23.999996 Z M 44.000008,345.26671 H 47.999998 V 349.26669 H 44.000008 Z M 64,345.26671 H 68.00001 V 349.26669 H 64 Z M 72,345.26671 H 76 V 349.26669 H 72 Z M 76,345.26671 H 80.00001 V 349.26669 H 76 Z M 80.00001,345.26671 H 84 V 349.26669 H 80.00001 Z M 84,345.26671 H 88 V 349.26669 H 84 Z M 88,345.26671 H 92.00001 V 349.26669 H 88 Z M 92.00001,345.26671 H 95.999995 V 349.26669 H 92.00001 Z M 95.999995,345.26671 H 100 V 349.26669 H 95.999995 Z M 0,349.26669 H 3.999995 V 353.26669 H 0 Z M 23.999996,349.26669 H 27.999997 V 353.26669 H 23.999996 Z M 39.999999,349.26669 H 44.000008 V 353.26669 H 39.999999 Z M 44.000008,349.26669 H 47.999998 V 353.26669 H 44.000008 Z M 56.00001,349.26669 H 60 V 353.26669 H 56.00001 Z M 60,349.26669 H 64 V 353.26669 H 60 Z M 64,349.26669 H 68.00001 V 353.26669 H 64 Z M 72,349.26669 H 76 V 353.26669 H 72 Z M 95.999995,349.26669 H 100 V 353.26669 H 95.999995 Z M 0,353.26669 H 3.999995 V 357.26664 H 0 Z M 8.0000045,353.26669 H 11.999997 V 357.26664 H 8.0000045 Z M 11.999997,353.26669 H 15.999995 V 357.26664 H 11.999997 Z M 15.999995,353.26669 H 20.000007 V 357.26664 H 15.999995 Z M 23.999996,353.26669 H 27.999997 V 357.26664 H 23.999996 Z M 32.000007,353.26669 H 35.999997 V 357.26664 H 32.000007 Z M 44.000008,353.26669 H 47.999998 V 357.26664 H 44.000008 Z M 56.00001,353.26669 H 60 V 357.26664 H 56.00001 Z M 72,353.26669 H 76 V 357.26664 H 72 Z M 80.00001,353.26669 H 84 V 357.26664 H 80.00001 Z M 84,353.26669 H 88 V 357.26664 H 84 Z M 88,353.26669 H 92.00001 V 357.26664 H 88 Z M 95.999995,353.26669 H 100 V 357.26664 H 95.999995 Z M 0,357.26664 H 3.999995 V 361.26667 H 0 Z M 8.0000045,357.26664 H 11.999997 V 361.26667 H 8.0000045 Z M 11.999997,357.26664 H 15.999995 V 361.26667 H 11.999997 Z M 15.999995,357.26664 H 20.000007 V 361.26667 H 15.999995 Z M 23.999996,357.26664 H 27.999997 V 361.26667 H 23.999996 Z M 32.000007,357.26664 H 35.999997 V 361.26667 H 32.000007 Z M 35.999997,357.26664 H 39.999999 V 361.26667 H 35.999997 Z M 47.999998,357.26664 H 51.999995 V 361.26667 H 47.999998 Z M 51.999995,357.26664 H 56.00001 V 361.26667 H 51.999995 Z M 56.00001,357.26664 H 60 V 361.26667 H 56.00001 Z M 60,357.26664 H 64 V 361.26667 H 60 Z M 64,357.26664 H 68.00001 V 361.26667 H 64 Z M 72,357.26664 H 76 V 361.26667 H 72 Z M 80.00001,357.26664 H 84 V 361.26667 H 80.00001 Z M 84,357.26664 H 88 V 361.26667 H 84 Z M 88,357.26664 H 92.00001 V 361.26667 H 88 Z M 95.999995,357.26664 H 100 V 361.26667 H 95.999995 Z M 0,361.26667 H 3.999995 V 365.26668 H 0 Z M 8.0000045,361.26667 H 11.999997 V 365.26668 H 8.0000045 Z M 11.999997,361.26667 H 15.999995 V 365.26668 H 11.999997 Z M 15.999995,361.26667 H 20.000007 V 365.26668 H 15.999995 Z M 23.999996,361.26667 H 27.999997 V 365.26668 H 23.999996 Z M 32.000007,361.26667 H 35.999997 V 365.26668 H 32.000007 Z M 35.999997,361.26667 H 39.999999 V 365.26668 H 35.999997 Z M 44.000008,361.26667 H 47.999998 V 365.26668 H 44.000008 Z M 64,361.26667 H 68.00001 V 365.26668 H 64 Z M 72,361.26667 H 76 V 365.26668 H 72 Z M 80.00001,361.26667 H 84 V 365.26668 H 80.00001 Z M 84,361.26667 H 88 V 365.26668 H 84 Z M 88,361.26667 H 92.00001 V 365.26668 H 88 Z M 95.999995,361.26667 H 100 V 365.26668 H 95.999995 Z M 0,365.26668 H 3.999995 V 369.26671 H 0 Z M 23.999996,365.26668 H 27.999997 V 369.26671 H 23.999996 Z M 32.000007,365.26668 H 35.999997 V 369.26671 H 32.000007 Z M 35.999997,365.26668 H 39.999999 V 369.26671 H 35.999997 Z M 39.999999,365.26668 H 44.000008 V 369.26671 H 39.999999 Z M 44.000008,365.26668 H 47.999998 V 369.26671 H 44.000008 Z M 60,365.26668 H 64 V 369.26671 H 60 Z M 64,365.26668 H 68.00001 V 369.26671 H 64 Z M 72,365.26668 H 76 V 369.26671 H 72 Z M 95.999995,365.26668 H 100 V 369.26671 H 95.999995 Z M 0,369.26671 H 3.999995 V 373.26669 H 0 Z M 3.999995,369.26671 H 8.0000045 V 373.26669 H 3.999995 Z M 8.0000045,369.26671 H 11.999997 V 373.26669 H 8.0000045 Z M 11.999997,369.26671 H 15.999995 V 373.26669 H 11.999997 Z M 15.999995,369.26671 H 20.000007 V 373.26669 H 15.999995 Z M 20.000007,369.26671 H 23.999996 V 373.26669 H 20.000007 Z M 23.999996,369.26671 H 27.999997 V 373.26669 H 23.999996 Z M 32.000007,369.26671 H 35.999997 V 373.26669 H 32.000007 Z M 39.999999,369.26671 H 44.000008 V 373.26669 H 39.999999 Z M 47.999998,369.26671 H 51.999995 V 373.26669 H 47.999998 Z M 56.00001,369.26671 H 60 V 373.26669 H 56.00001 Z M 64,369.26671 H 68.00001 V 373.26669 H 64 Z M 72,369.26671 H 76 V 373.26669 H 72 Z M 76,369.26671 H 80.00001 V 373.26669 H 76 Z M 80.00001,369.26671 H 84 V 373.26669 H 80.00001 Z M 84,369.26671 H 88 V 373.26669 H 84 Z M 88,369.26671 H 92.00001 V 373.26669 H 88 Z M 92.00001,369.26671 H 95.999995 V 373.26669 H 92.00001 Z M 95.999995,369.26671 H 100 V 373.26669 H 95.999995 Z M 32.000007,373.26669 H 35.999997 V 377.26667 H 32.000007 Z M 44.000008,373.26669 H 47.999998 V 377.26667 H 44.000008 Z M 47.999998,373.26669 H 51.999995 V 377.26667 H 47.999998 Z M 56.00001,373.26669 H 60 V 377.26667 H 56.00001 Z M 60,373.26669 H 64 V 377.26667 H 60 Z M 64,373.26669 H 68.00001 V 377.26667 H 64 Z M 0,377.26667 H 3.999995 V 381.2667 H 0 Z M 8.0000045,377.26667 H 11.999997 V 381.2667 H 8.0000045 Z M 11.999997,377.26667 H 15.999995 V 381.2667 H 11.999997 Z M 15.999995,377.26667 H 20.000007 V 381.2667 H 15.999995 Z M 20.000007,377.26667 H 23.999996 V 381.2667 H 20.000007 Z M 23.999996,377.26667 H 27.999997 V 381.2667 H 23.999996 Z M 39.999999,377.26667 H 44.000008 V 381.2667 H 39.999999 Z M 44.000008,377.26667 H 47.999998 V 381.2667 H 44.000008 Z M 51.999995,377.26667 H 56.00001 V 381.2667 H 51.999995 Z M 56.00001,377.26667 H 60 V 381.2667 H 56.00001 Z M 60,377.26667 H 64 V 381.2667 H 60 Z M 72,377.26667 H 76 V 381.2667 H 72 Z M 76,377.26667 H 80.00001 V 381.2667 H 76 Z M 80.00001,377.26667 H 84 V 381.2667 H 80.00001 Z M 84,377.26667 H 88 V 381.2667 H 84 Z M 88,377.26667 H 92.00001 V 381.2667 H 88 Z M 0,381.2667 H 3.999995 V 385.26665 H 0 Z M 3.999995,381.2667 H 8.0000045 V 385.26665 H 3.999995 Z M 11.999997,381.2667 H 15.999995 V 385.26665 H 11.999997 Z M 15.999995,381.2667 H 20.000007 V 385.26665 H 15.999995 Z M 20.000007,381.2667 H 23.999996 V 385.26665 H 20.000007 Z M 27.999997,381.2667 H 32.000007 V 385.26665 H 27.999997 Z M 32.000007,381.2667 H 35.999997 V 385.26665 H 32.000007 Z M 35.999997,381.2667 H 39.999999 V 385.26665 H 35.999997 Z M 44.000008,381.2667 H 47.999998 V 385.26665 H 44.000008 Z M 47.999998,381.2667 H 51.999995 V 385.26665 H 47.999998 Z M 56.00001,381.2667 H 60 V 385.26665 H 56.00001 Z M 64,381.2667 H 68.00001 V 385.26665 H 64 Z M 68.00001,381.2667 H 72 V 385.26665 H 68.00001 Z M 76,381.2667 H 80.00001 V 385.26665 H 76 Z M 92.00001,381.2667 H 95.999995 V 385.26665 H 92.00001 Z M 0,385.26665 H 3.999995 V 389.26668 H 0 Z M 8.0000045,385.26665 H 11.999997 V 389.26668 H 8.0000045 Z M 20.000007,385.26665 H 23.999996 V 389.26668 H 20.000007 Z M 23.999996,385.26665 H 27.999997 V 389.26668 H 23.999996 Z M 51.999995,385.26665 H 56.00001 V 389.26668 H 51.999995 Z M 60,385.26665 H 64 V 389.26668 H 60 Z M 68.00001,385.26665 H 72 V 389.26668 H 68.00001 Z M 72,385.26665 H 76 V 389.26668 H 72 Z M 84,385.26665 H 88 V 389.26668 H 84 Z M 92.00001,385.26665 H 95.999995 V 389.26668 H 92.00001 Z M 95.999995,385.26665 H 100 V 389.26668 H 95.999995 Z M 3.999995,389.26668 H 8.0000045 V 393.26666 H 3.999995 Z M 11.999997,389.26668 H 15.999995 V 393.26666 H 11.999997 Z M 20.000007,389.26668 H 23.999996 V 393.26666 H 20.000007 Z M 27.999997,389.26668 H 32.000007 V 393.26666 H 27.999997 Z M 32.000007,389.26668 H 35.999997 V 393.26666 H 32.000007 Z M 35.999997,389.26668 H 39.999999 V 393.26666 H 35.999997 Z M 39.999999,389.26668 H 44.000008 V 393.26666 H 39.999999 Z M 44.000008,389.26668 H 47.999998 V 393.26666 H 44.000008 Z M 47.999998,389.26668 H 52 V 393.26666 H 47.999998 Z M 68.00001,389.26668 H 72 V 393.26666 H 68.00001 Z M 72,389.26668 H 76 V 393.26666 H 72 Z M 96.000005,389.26668 H 100 V 393.26666 H 96.000005 Z M 8.0000045,393.26666 H 11.999997 V 397.26669 H 8.0000045 Z M 23.999999,393.26666 H 27.999997 V 397.26669 H 23.999999 Z M 27.999997,393.26666 H 32.000007 V 397.26669 H 27.999997 Z M 47.999998,393.26666 H 52 V 397.26669 H 47.999998 Z M 52,393.26666 H 56.00001 V 397.26669 H 52 Z M 56.00001,393.26666 H 60 V 397.26669 H 56.00001 Z M 60,393.26666 H 64 V 397.26669 H 60 Z M 64,393.26666 H 68.00001 V 397.26669 H 64 Z M 68.00001,393.26666 H 72 V 397.26669 H 68.00001 Z M 72,393.26666 H 76 V 397.26669 H 72 Z M 76,393.26666 H 80.000015 V 397.26669 H 76 Z M 80.000015,393.26666 H 84.000005 V 397.26669 H 80.000015 Z M 88,393.26666 H 92.00001 V 397.26669 H 88 Z M 92.00001,393.26666 H 96.000005 V 397.26669 H 92.00001 Z M 96.000005,393.26666 H 100 V 397.26669 H 96.000005 Z M 0,397.26669 H 3.999995 V 401.26669 H 0 Z M 11.999997,397.26669 H 15.999995 V 401.26669 H 11.999997 Z M 15.999995,397.26669 H 20.000007 V 401.26669 H 15.999995 Z M 20.000007,397.26669 H 23.999999 V 401.26669 H 20.000007 Z M 32.000007,397.26669 H 36.000002 V 401.26669 H 32.000007 Z M 40.000001,397.26669 H 44.000011 V 401.26669 H 40.000001 Z M 47.999998,397.26669 H 52 V 401.26669 H 47.999998 Z M 64,397.26669 H 68.00001 V 401.26669 H 64 Z M 68.00001,397.26669 H 72 V 401.26669 H 68.00001 Z M 76,397.26669 H 80.00001 V 401.26669 H 76 Z M 84,397.26669 H 88 V 401.26669 H 84 Z M 92.00001,397.26669 H 95.999995 V 401.26669 H 92.00001 Z M 0,401.26669 H 3.999995 V 405.26665 H 0 Z M 8.0000045,401.26669 H 11.999997 V 405.26665 H 8.0000045 Z M 11.999997,401.26669 H 15.999995 V 405.26665 H 11.999997 Z M 23.999996,401.26669 H 27.999997 V 405.26665 H 23.999996 Z M 27.999997,401.26669 H 32.000007 V 405.26665 H 27.999997 Z M 32.000007,401.26669 H 35.999997 V 405.26665 H 32.000007 Z M 35.999997,401.26669 H 39.999999 V 405.26665 H 35.999997 Z M 39.999999,401.26669 H 44.000008 V 405.26665 H 39.999999 Z M 51.999995,401.26669 H 56.00001 V 405.26665 H 51.999995 Z M 60,401.26669 H 64 V 405.26665 H 60 Z M 64,401.26669 H 68.00001 V 405.26665 H 64 Z M 72,401.26669 H 76 V 405.26665 H 72 Z M 76,401.26669 H 80.00001 V 405.26665 H 76 Z M 80.00001,401.26669 H 84 V 405.26665 H 80.00001 Z M 84,401.26669 H 88 V 405.26665 H 84 Z M 92.00001,401.26669 H 95.999995 V 405.26665 H 92.00001 Z M 95.999995,401.26669 H 100 V 405.26665 H 95.999995 Z M 0,405.26665 H 3.999995 V 409.26668 H 0 Z M 11.999997,405.26665 H 15.999995 V 409.26668 H 11.999997 Z M 20.000007,405.26665 H 23.999996 V 409.26668 H 20.000007 Z M 32.000007,405.26665 H 35.999997 V 409.26668 H 32.000007 Z M 56.00001,405.26665 H 60 V 409.26668 H 56.00001 Z M 76,405.26665 H 80.00001 V 409.26668 H 76 Z M 80.00001,405.26665 H 84 V 409.26668 H 80.00001 Z M 95.999995,405.26665 H 100 V 409.26668 H 95.999995 Z M 0,409.26668 H 3.999995 V 413.26668 H 0 Z M 8.0000045,409.26668 H 11.999997 V 413.26668 H 8.0000045 Z M 11.999997,409.26668 H 15.999995 V 413.26668 H 11.999997 Z M 15.999995,409.26668 H 20.000007 V 413.26668 H 15.999995 Z M 20.000007,409.26668 H 23.999996 V 413.26668 H 20.000007 Z M 23.999996,409.26668 H 27.999997 V 413.26668 H 23.999996 Z M 27.999997,409.26668 H 32.000007 V 413.26668 H 27.999997 Z M 35.999997,409.26668 H 39.999999 V 413.26668 H 35.999997 Z M 39.999999,409.26668 H 44.000008 V 413.26668 H 39.999999 Z M 44.000008,409.26668 H 47.999998 V 413.26668 H 44.000008 Z M 47.999998,409.26668 H 51.999995 V 413.26668 H 47.999998 Z M 51.999995,409.26668 H 56.00001 V 413.26668 H 51.999995 Z M 56.00001,409.26668 H 60 V 413.26668 H 56.00001 Z M 60,409.26668 H 64 V 413.26668 H 60 Z M 64,409.26668 H 68.00001 V 413.26668 H 64 Z M 68.00001,409.26668 H 72 V 413.26668 H 68.00001 Z M 72,409.26668 H 76 V 413.26668 H 72 Z M 76,409.26668 H 80.00001 V 413.26668 H 76 Z M 80.00001,409.26668 H 84 V 413.26668 H 80.00001 Z M 88,409.26668 H 92.00001 V 413.26668 H 88 Z M 32.000007,413.26668 H 35.999997 V 417.26664 H 32.000007 Z M 35.999997,413.26668 H 39.999999 V 417.26664 H 35.999997 Z M 44.000008,413.26668 H 47.999998 V 417.26664 H 44.000008 Z M 51.999995,413.26668 H 56.00001 V 417.26664 H 51.999995 Z M 64,413.26668 H 68.00001 V 417.26664 H 64 Z M 80.00001,413.26668 H 84 V 417.26664 H 80.00001 Z M 84,413.26668 H 88 V 417.26664 H 84 Z M 0,417.26664 H 3.999995 V 421.26667 H 0 Z M 3.999995,417.26664 H 8.0000045 V 421.26667 H 3.999995 Z M 8.0000045,417.26664 H 11.999997 V 421.26667 H 8.0000045 Z M 11.999997,417.26664 H 15.999995 V 421.26667 H 11.999997 Z M 15.999995,417.26664 H 20.000007 V 421.26667 H 15.999995 Z M 20.000007,417.26664 H 23.999996 V 421.26667 H 20.000007 Z M 23.999996,417.26664 H 27.999997 V 421.26667 H 23.999996 Z M 35.999997,417.26664 H 39.999999 V 421.26667 H 35.999997 Z M 39.999999,417.26664 H 44.000008 V 421.26667 H 39.999999 Z M 64,417.26664 H 68.00001 V 421.26667 H 64 Z M 72,417.26664 H 76 V 421.26667 H 72 Z M 80.00001,417.26664 H 84 V 421.26667 H 80.00001 Z M 88,417.26664 H 92.00001 V 421.26667 H 88 Z M 92.00001,417.26664 H 95.999995 V 421.26667 H 92.00001 Z M 95.999995,417.26664 H 100 V 421.26667 H 95.999995 Z M 0,421.26667 H 3.999995 V 425.26667 H 0 Z M 23.999996,421.26667 H 27.999997 V 425.26667 H 23.999996 Z M 32.000007,421.26667 H 35.999997 V 425.26667 H 32.000007 Z M 35.999997,421.26667 H 39.999999 V 425.26667 H 35.999997 Z M 44.000008,421.26667 H 47.999998 V 425.26667 H 44.000008 Z M 64,421.26667 H 68.00001 V 425.26667 H 64 Z M 80.00001,421.26667 H 84 V 425.26667 H 80.00001 Z M 84,421.26667 H 88 V 425.26667 H 84 Z M 0,425.26667 H 3.999995 V 429.26668 H 0 Z M 8.0000045,425.26667 H 11.999997 V 429.26668 H 8.0000045 Z M 11.999997,425.26667 H 15.999995 V 429.26668 H 11.999997 Z M 15.999995,425.26667 H 20.000007 V 429.26668 H 15.999995 Z M 23.999996,425.26667 H 27.999997 V 429.26668 H 23.999996 Z M 32.000007,425.26667 H 35.999997 V 429.26668 H 32.000007 Z M 39.999999,425.26667 H 44.000008 V 429.26668 H 39.999999 Z M 44.000008,425.26667 H 47.999998 V 429.26668 H 44.000008 Z M 47.999998,425.26667 H 51.999995 V 429.26668 H 47.999998 Z M 51.999995,425.26667 H 56.00001 V 429.26668 H 51.999995 Z M 60,425.26667 H 64 V 429.26668 H 60 Z M 64,425.26667 H 68.00001 V 429.26668 H 64 Z M 68.00001,425.26667 H 72 V 429.26668 H 68.00001 Z M 72,425.26667 H 76 V 429.26668 H 72 Z M 76,425.26667 H 80.00001 V 429.26668 H 76 Z M 80.00001,425.26667 H 84 V 429.26668 H 80.00001 Z M 88,425.26667 H 92.00001 V 429.26668 H 88 Z M 0,429.26668 H 3.999995 V 433.26666 H 0 Z M 8.0000045,429.26668 H 11.999997 V 433.26666 H 8.0000045 Z M 11.999997,429.26668 H 15.999995 V 433.26666 H 11.999997 Z M 15.999995,429.26668 H 20.000007 V 433.26666 H 15.999995 Z M 23.999996,429.26668 H 27.999997 V 433.26666 H 23.999996 Z M 32.000007,429.26668 H 35.999997 V 433.26666 H 32.000007 Z M 44.000008,429.26668 H 47.999998 V 433.26666 H 44.000008 Z M 51.999995,429.26668 H 56.00001 V 433.26666 H 51.999995 Z M 68.00001,429.26668 H 72 V 433.26666 H 68.00001 Z M 72,429.26668 H 76 V 433.26666 H 72 Z M 80.00001,429.26668 H 84 V 433.26666 H 80.00001 Z M 84,429.26668 H 88 V 433.26666 H 84 Z M 88,429.26668 H 92.00001 V 433.26666 H 88 Z M 92.00001,429.26668 H 95.999995 V 433.26666 H 92.00001 Z M 95.999995,429.26668 H 100 V 433.26666 H 95.999995 Z M 0,433.26666 H 3.999995 V 437.26669 H 0 Z M 8.0000045,433.26666 H 11.999997 V 437.26669 H 8.0000045 Z M 11.999997,433.26666 H 15.999995 V 437.26669 H 11.999997 Z M 15.999995,433.26666 H 20.000007 V 437.26669 H 15.999995 Z M 23.999996,433.26666 H 27.999997 V 437.26669 H 23.999996 Z M 32.000007,433.26666 H 35.999997 V 437.26669 H 32.000007 Z M 51.999995,433.26666 H 56.00001 V 437.26669 H 51.999995 Z M 56.00001,433.26666 H 60 V 437.26669 H 56.00001 Z M 60,433.26666 H 64 V 437.26669 H 60 Z M 64,433.26666 H 68.00001 V 437.26669 H 64 Z M 68.00001,433.26666 H 72 V 437.26669 H 68.00001 Z M 84,433.26666 H 88 V 437.26669 H 84 Z M 88,433.26666 H 92.00001 V 437.26669 H 88 Z M 95.999995,433.26666 H 100 V 437.26669 H 95.999995 Z M 0,437.26669 H 3.999995 V 441.26664 H 0 Z M 23.999996,437.26669 H 27.999997 V 441.26664 H 23.999996 Z M 39.999999,437.26669 H 44.000008 V 441.26664 H 39.999999 Z M 44.000008,437.26669 H 47.999998 V 441.26664 H 44.000008 Z M 47.999998,437.26669 H 51.999995 V 441.26664 H 47.999998 Z M 60,437.26669 H 64 V 441.26664 H 60 Z M 64,437.26669 H 68.00001 V 441.26664 H 64 Z M 68.00001,437.26669 H 72 V 441.26664 H 68.00001 Z M 72,437.26669 H 76 V 441.26664 H 72 Z M 76,437.26669 H 80.00001 V 441.26664 H 76 Z M 80.00001,437.26669 H 84 V 441.26664 H 80.00001 Z M 84,437.26669 H 88 V 441.26664 H 84 Z M 95.999995,437.26669 H 100 V 441.26664 H 95.999995 Z M 0,441.26664 H 3.999995 V 445.26667 H 0 Z M 3.999995,441.26664 H 8.0000045 V 445.26667 H 3.999995 Z M 8.0000045,441.26664 H 11.999997 V 445.26667 H 8.0000045 Z M 11.999997,441.26664 H 15.999995 V 445.26667 H 11.999997 Z M 15.999995,441.26664 H 20.000007 V 445.26667 H 15.999995 Z M 20.000007,441.26664 H 23.999996 V 445.26667 H 20.000007 Z M 23.999996,441.26664 H 27.999997 V 445.26667 H 23.999996 Z M 32.000007,441.26664 H 35.999997 V 445.26667 H 32.000007 Z M 47.999998,441.26664 H 51.999995 V 445.26667 H 47.999998 Z M 51.999995,441.26664 H 56.00001 V 445.26667 H 51.999995 Z M 56.00001,441.26664 H 60 V 445.26667 H 56.00001 Z M 76,441.26664 H 80.00001 V 445.26667 H 76 Z M 80.00001,441.26664 H 84 V 445.26667 H 80.00001 Z M 84,441.26664 H 88 V 445.26667 H 84 Z M 88,441.26664 H 92.00001 V 445.26667 H 88 Z M 92.00001,441.26664 H 95.999995 V 445.26667 H 92.00001 Z M 95.999995,441.26664 H 100 V 445.26667 H 95.999995 Z"
         style="fill:#000000;fill-opacity:1;stroke:none"
         inkscape:connector-curvature="0" />
      <path
         d="M 0,453.26669 V 449.26669 H 4 V 453.26669 Z M 4,453.26669 V 449.26669 H 8 V 453.26669 Z M 8,453.26669 V 449.26669 H 12 V 453.26669 Z M 12,453.26669 V 449.26669 H 16 V 453.26669 Z M 16,453.26669 V 449.26669 H 20 V 453.26669 Z M 0,457.26669 V 453.26669 H 4 V 457.26669 Z M 20,457.26669 V 453.26669 H 24 V 457.26669 Z M 0,461.26669 V 457.26669 H 4 V 461.26669 Z M 20,461.26669 V 457.26669 H 24 V 461.26669 Z M 0,465.26669 V 461.26669 H 4 V 465.26669 Z M 20,465.26669 V 461.26669 H 24 V 465.26669 Z M 0,469.26669 V 465.26669 H 4 V 469.26669 Z M 20,469.26669 V 465.26669 H 24 V 469.26669 Z M 0,473.26669 V 469.26669 H 4 V 473.26669 Z M 4,473.26669 V 469.26669 H 8 V 473.26669 Z M 8,473.26669 V 469.26669 H 12 V 473.26669 Z M 12,473.26669 V 469.26669 H 16 V 473.26669 Z M 16,473.26669 V 469.26669 H 20 V 473.26669 Z M 0,477.26669 V 473.26669 H 4 V 477.26669 Z M 0,481.26669 V 477.26669 H 4 V 481.26669 Z M 0,485.26669 V 481.26669 H 4 V 485.26669 Z"
         style="fill:#000000;fill-opacity:1;stroke:none"
         id="path4737"
         inkscape:connector-curvature="0" />
      <path
         d="M 35.861378,453.26669 V 449.26669 H 39.861378 V 453.26669 Z M 39.861378,453.26669 V 449.26669 H 43.861378 V 453.26669 Z M 43.861378,453.26669 V 449.26669 H 47.861378 V 453.26669 Z M 47.861378,453.26669 V 449.26669 H 51.861378 V 453.26669 Z M 31.861378,457.26669 V 453.26669 H 35.861378 V 457.26669 Z M 31.861378,461.26669 V 457.26669 H 35.861378 V 461.26669 Z M 31.861378,465.26669 V 461.26669 H 35.861378 V 465.26669 Z M 31.861378,469.26669 V 465.26669 H 35.861378 V 469.26669 Z M 31.861378,473.26669 V 469.26669 H 35.861378 V 473.26669 Z"
         style="fill:#000000;fill-opacity:1;stroke:none"
         id="path4740"
         inkscape:connector-curvature="0" />
    </g>
  </g>
  <metadata
     id="metadata6334">
    <rdf:RDF>
      <cc:Work
         rdf:about="">
        <dc:title></dc:title>
        <dc:format>image/svg+xml</dc:format>
        <dc:type
           rdf:resource="http://purl.org/dc/dcmitype/StillImage" />
      </cc:Work>
    </rdf:RDF>
  </metadata>
</svg>
