<svg xmlns="http://www.w3.org/2000/svg" fill="currentcolor" shape-rendering="crispEdges" viewBox="0 0 200 280">
  <path d="M0 0h8v8H0zm8 0h8v8H8zm8 0h8v8h-8zm8 0h8v8h-8zm8 0h8v8h-8zm8 0h8v8h-8zm8 0h8v8h-8zm40 0h8v8h-8zm40 0h8v8h-8zm16 0h8v8h-8zm8 0h8v8h-8zm8 0h8v8h-8zm8 0h8v8h-8zm8 0h8v8h-8zm8 0h8v8h-8zm8 0h8v8h-8zM0 8h8v8H0zm48 0h8v8h-8zm32 0h8v8h-8zm8 0h8v8h-8zm24 0h8v8h-8zm8 0h8v8h-8zm8 0h8v8h-8zm16 0h8v8h-8zm48 0h8v8h-8zM0 16h8v8H0zm16 0h8v8h-8zm8 0h8v8h-8zm8 0h8v8h-8zm16 0h8v8h-8zm16 0h8v8h-8zm24 0h8v8h-8zm24 0h8v8h-8zm32 0h8v8h-8zm16 0h8v8h-8zm8 0h8v8h-8zm8 0h8v8h-8zm16 0h8v8h-8zM0 24h8v8H0zm16 0h8v8h-8zm8 0h8v8h-8zm8 0h8v8h-8zm16 0h8v8h-8zm16 0h8v8h-8zm8 0h8v8h-8zm24 0h8v8h-8zm8 0h8v8h-8zm8 0h8v8h-8zm8 0h8v8h-8zm8 0h8v8h-8zm16 0h8v8h-8zm16 0h8v8h-8zm8 0h8v8h-8zm8 0h8v8h-8zm16 0h8v8h-8zM0 32h8v8H0zm16 0h8v8h-8zm8 0h8v8h-8zm8 0h8v8h-8zm16 0h8v8h-8zm16 0h8v8h-8zm8 0h8v8h-8zm16 0h8v8h-8zm40 0h8v8h-8zm16 0h8v8h-8zm16 0h8v8h-8zm8 0h8v8h-8zm8 0h8v8h-8zm16 0h8v8h-8zM0 40h8v8H0zm48 0h8v8h-8zm16 0h8v8h-8zm8 0h8v8h-8zm8 0h8v8h-8zm8 0h8v8h-8zm32 0h8v8h-8zm8 0h8v8h-8zm16 0h8v8h-8zm48 0h8v8h-8zM0 48h8v8H0zm8 0h8v8H8zm8 0h8v8h-8zm8 0h8v8h-8zm8 0h8v8h-8zm8 0h8v8h-8zm8 0h8v8h-8zm16 0h8v8h-8zm16 0h8v8h-8zm16 0h8v8h-8zm16 0h8v8h-8zm16 0h8v8h-8zm16 0h8v8h-8zm8 0h8v8h-8zm8 0h8v8h-8zm8 0h8v8h-8zm8 0h8v8h-8zm8 0h8v8h-8zm8 0h8v8h-8zM64 56h8v8h-8zm24 0h8v8h-8zm8 0h8v8h-8zm16 0h8v8h-8zm8 0h8v8h-8zm8 0h8v8h-8zM0 64h8v8H0zm16 0h8v8h-8zm8 0h8v8h-8zm8 0h8v8h-8zm8 0h8v8h-8zm8 0h8v8h-8zm32 0h8v8h-8zm8 0h8v8h-8zm16 0h8v8h-8zm8 0h8v8h-8zm8 0h8v8h-8zm24 0h8v8h-8zm8 0h8v8h-8zm8 0h8v8h-8zm8 0h8v8h-8zm8 0h8v8h-8zM0 72h8v8H0zm8 0h8v8H8zm16 0h8v8h-8zm8 0h8v8h-8zm8 0h8v8h-8zm16 0h8v8h-8zm8 0h8v8h-8zm8 0h8v8h-8zm16 0h8v8h-8zm8 0h8v8h-8zm16 0h8v8h-8zm16 0h8v8h-8zm8 0h8v8h-8zm16 0h8v8h-8zm32 0h8v8h-8zM0 80h8v8H0zm16 0h8v8h-8zm24 0h8v8h-8zm8 0h8v8h-8zm56 0h8v8h-8zm16 0h8v8h-8zm16 0h8v8h-8zm8 0h8v8h-8zm24 0h8v8h-8zm16 0h8v8h-8zm8 0h8v8h-8zM8 88h8v8H8zm16 0h8v8h-8zm16 0h8v8h-8zm16 0h8v8h-8zm8 0h8v8h-8zm8 0h8v8h-8zm8 0h8v8h-8zm8 0h8v8h-8zm8 0h8v8h-8zm40 0h8v8h-8zm8 0h8v8h-8zm48 0h8v8h-8zM16 96h8v8h-8zm32 0h8v8h-8zm8 0h8v8h-8zm40 0h8v8h-8zm8 0h8v8h-8zm8 0h8v8h-8zm8 0h8v8h-8zm8 0h8v8h-8zm8 0h8v8h-8zm8 0h8v8h-8zm8 0h8v8h-8zm8 0h8v8h-8zm16 0h8v8h-8zm8 0h8v8h-8zm8 0h8v8h-8zM0 104h8v8H0zm24 0h8v8h-8zm8 0h8v8h-8zm8 0h8v8h-8zm24 0h8v8h-8zm16 0h8v8h-8zm16 0h8v8h-8zm32 0h8v8h-8zm8 0h8v8h-8zm16 0h8v8h-8zm16 0h8v8h-8zm16 0h8v8h-8zM0 112h8v8H0zm16 0h8v8h-8zm8 0h8v8h-8zm24 0h8v8h-8zm8 0h8v8h-8zm8 0h8v8h-8zm8 0h8v8h-8zm8 0h8v8h-8zm24 0h8v8h-8zm16 0h8v8h-8zm8 0h8v8h-8zm16 0h8v8h-8zm8 0h8v8h-8zm8 0h8v8h-8zm8 0h8v8h-8zm16 0h8v8h-8zm8 0h8v8h-8zM0 120h8v8H0zm24 0h8v8h-8zm16 0h8v8h-8zm24 0h8v8h-8zm48 0h8v8h-8zm40 0h8v8h-8zm8 0h8v8h-8zm32 0h8v8h-8zM0 128h8v8H0zm16 0h8v8h-8zm8 0h8v8h-8zm8 0h8v8h-8zm8 0h8v8h-8zm8 0h8v8h-8zm8 0h8v8h-8zm16 0h8v8h-8zm8 0h8v8h-8zm8 0h8v8h-8zm8 0h8v8h-8zm8 0h8v8h-8zm8 0h8v8h-8zm8 0h8v8h-8zm8 0h8v8h-8zm8 0h8v8h-8zm8 0h8v8h-8zm8 0h8v8h-8zm8 0h8v8h-8zm16 0h8v8h-8zm-112 8h8v8h-8zm8 0h8v8h-8zm16 0h8v8h-8zm16 0h8v8h-8zm24 0h8v8h-8zm32 0h8v8h-8zm8 0h8v8h-8zM0 144h8v8H0zm8 0h8v8H8zm8 0h8v8h-8zm8 0h8v8h-8zm8 0h8v8h-8zm8 0h8v8h-8zm8 0h8v8h-8zm24 0h8v8h-8zm8 0h8v8h-8zm48 0h8v8h-8zm16 0h8v8h-8zm16 0h8v8h-8zm16 0h8v8h-8zm8 0h8v8h-8zm8 0h8v8h-8zM0 152h8v8H0zm48 0h8v8h-8zm16 0h8v8h-8zm8 0h8v8h-8zm16 0h8v8h-8zm40 0h8v8h-8zm32 0h8v8h-8zm8 0h8v8h-8zM0 160h8v8H0zm16 0h8v8h-8zm8 0h8v8h-8zm8 0h8v8h-8zm16 0h8v8h-8zm16 0h8v8h-8zm16 0h8v8h-8zm8 0h8v8h-8zm8 0h8v8h-8zm8 0h8v8h-8zm16 0h8v8h-8zm8 0h8v8h-8zm8 0h8v8h-8zm8 0h8v8h-8zm8 0h8v8h-8zm8 0h8v8h-8zm16 0h8v8h-8zM0 168h8v8H0zm16 0h8v8h-8zm8 0h8v8h-8zm8 0h8v8h-8zm16 0h8v8h-8zm16 0h8v8h-8zm24 0h8v8h-8zm16 0h8v8h-8zm32 0h8v8h-8zm8 0h8v8h-8zm16 0h8v8h-8zm8 0h8v8h-8zm8 0h8v8h-8zm8 0h8v8h-8zm8 0h8v8h-8zM0 176h8v8H0zm16 0h8v8h-8zm8 0h8v8h-8zm8 0h8v8h-8zm16 0h8v8h-8zm16 0h8v8h-8zm40 0h8v8h-8zm8 0h8v8h-8zm8 0h8v8h-8zm8 0h8v8h-8zm8 0h8v8h-8zm32 0h8v8h-8zm8 0h8v8h-8zm16 0h8v8h-8zM0 184h8v8H0zm48 0h8v8h-8zm32 0h8v8h-8zm8 0h8v8h-8zm8 0h8v8h-8zm24 0h8v8h-8zm8 0h8v8h-8zm8 0h8v8h-8zm8 0h8v8h-8zm8 0h8v8h-8zm8 0h8v8h-8zm8 0h8v8h-8zm24 0h8v8h-8zM0 192h8v8H0zm8 0h8v8H8zm8 0h8v8h-8zm8 0h8v8h-8zm8 0h8v8h-8zm8 0h8v8h-8zm8 0h8v8h-8zm16 0h8v8h-8zm32 0h8v8h-8zm8 0h8v8h-8zm8 0h8v8h-8zm40 0h8v8h-8zm8 0h8v8h-8zm8 0h8v8h-8zm8 0h8v8h-8zm8 0h8v8h-8zm8 0h8v8h-8zM0 216v-8h8v8zm8 0v-8h8v8zm8 0v-8h8v8zm8 0v-8h8v8zm8 0v-8h8v8zm-32 8v-8h8v8zm40 0v-8h8v8zm-40 8v-8h8v8zm40 0v-8h8v8zm-40 8v-8h8v8zm40 0v-8h8v8zm-40 8v-8h8v8zm40 0v-8h8v8zm-40 8v-8h8v8zm8 0v-8h8v8zm8 0v-8h8v8zm8 0v-8h8v8zm8 0v-8h8v8zm-32 8v-8h8v8zm0 8v-8h8v8zm0 8v-8h8v8zm71.723-64v-8h8v8zm8 0v-8h8v8zm8 0v-8h8v8zm8 0v-8h8v8zm-32 8v-8h8v8zm0 8v-8h8v8zm0 8v-8h8v8zm0 8v-8h8v8zm0 8v-8h8v8z"/>
</svg>
