<svg xmlns="http://www.w3.org/2000/svg" shape-rendering="crispEdges" viewBox="0 0 256 256">
  <path fill="#f5f5f5" d="M0 0h256v256H0z"/>
  <path fill="#363636" d="M32 224v-16h16v16zm0-16v-16h16v16zm0-16v-16h16v16zm64-16v-16h16v16zm-16 0v-16h16v16zm-16 0v-16h16v16zm-16 0v-16h16v16zm-16 0v-16h16v16zm80-16v-16h16v16zm-80 0v-16h16v16zm80-16v-16h16v16zm-80 0v-16h16v16zm80-16v-16h16v16zm-80 0v-16h16v16zm80-16V96h16v16zm-80 0V96h16v16zm64-16V80h16v16zm-16 0V80h16v16zm-16 0V80h16v16zm-16 0V80h16v16zm-16 0V80h16v16zm128 80v-16h16v16zm0-16v-16h16v16zm0-16v-16h16v16zm0-16v-16h16v16zm0-16V96h16v16zm64-16V80h16v16zm-16 0V80h16v16zm-16 0V80h16v16zm-16 0V80h16v16z"/>
</svg>
