<?xml version="1.0" encoding="UTF-8" standalone="no"?>
<svg
   xmlns:dc="http://purl.org/dc/elements/1.1/"
   xmlns:cc="http://creativecommons.org/ns#"
   xmlns:rdf="http://www.w3.org/1999/02/22-rdf-syntax-ns#"
   xmlns:svg="http://www.w3.org/2000/svg"
   xmlns="http://www.w3.org/2000/svg"
   style="shape-rendering:crispEdges"
   id="qr-logo"
   version="1.1"
   viewBox="0 0 16 16"
   height="16"
   width="16">
  <defs
     id="defs2" />
  <g
     transform="translate(0,-469.26668)"
     id="layer1">
    <path
       d="M 2,483.26668 V 482.26668 H 3 V 483.26668 Z M 2,482.26668 V 481.26668 H 3 V 482.26668 Z M 2,481.26668 V 480.26668 H 3 V 481.26668 Z M 6,480.26668 V 479.26668 H 7 V 480.26668 Z M 5,480.26668 V 479.26668 H 6 V 480.26668 Z M 4,480.26668 V 479.26668 H 5 V 480.26668 Z M 3,480.26668 V 479.26668 H 4 V 480.26668 Z M 2,480.26668 V 479.26668 H 3 V 480.26668 Z M 7,479.26668 V 478.26668 H 8 V 479.26668 Z M 2,479.26668 V 478.26668 H 3 V 479.26668 Z M 7,478.26668 V 477.26668 H 8 V 478.26668 Z M 2,478.26668 V 477.26668 H 3 V 478.26668 Z M 7,477.26668 V 476.26668 H 8 V 477.26668 Z M 2,477.26668 V 476.26668 H 3 V 477.26668 Z M 7,476.26668 V 475.26668 H 8 V 476.26668 Z M 2,476.26668 V 475.26668 H 3 V 476.26668 Z M 6,475.26668 V 474.26668 H 7 V 475.26668 Z M 5,475.26668 V 474.26668 H 6 V 475.26668 Z M 4,475.26668 V 474.26668 H 5 V 475.26668 Z M 3,475.26668 V 474.26668 H 4 V 475.26668 Z M 2,475.26668 V 474.26668 H 3 V 475.26668 Z"
       style="fill:#000000;fill-opacity:1;stroke:none;stroke-width:0.25"
       id="path4737" />
    <path
       d="M 10,480.26668 V 479.26667 H 11.000001 V 480.26668 Z M 10,479.26667 V 478.26668 H 11.000001 V 479.26667 Z M 10,478.26668 V 477.26668 H 11.000001 V 478.26668 Z M 10,477.26668 V 476.26667 H 11.000001 V 477.26668 Z M 10,476.26667 V 475.26668 H 11.000001 V 476.26667 Z M 14.000001,475.26668 V 474.26668 H 15 V 475.26668 Z M 13,475.26668 V 474.26668 H 14.000001 V 475.26668 Z M 12,475.26668 V 474.26668 H 13 V 475.26668 Z M 11.000001,475.26668 V 474.26668 H 12 V 475.26668 Z"
       style="fill:#000000;fill-opacity:1;stroke:none;stroke-width:0.25000003"
       id="path4740" />
  </g>
  <metadata
     id="metadata6334">
    <rdf:RDF>
      <cc:Work
         rdf:about="">
        <dc:title></dc:title>
        <dc:format>image/svg+xml</dc:format>
        <dc:type
           rdf:resource="http://purl.org/dc/dcmitype/StillImage" />
      </cc:Work>
    </rdf:RDF>
  </metadata>
</svg>
