<svg version="1" xmlns="http://www.w3.org/2000/svg" width="341.333" height="341.333" viewBox="0 0 256.000000 256.000000"><path d="M8 80.4V154h8l-.2-73.3-.3-73.2-3.7-.3L8 6.9v73.5zM23 80.4V154h8l-.2-73.3-.3-73.2-3.7-.3-3.8-.3v73.5zM45.7 7.7c-.4.3-.7 33.4-.7 73.5V154h30V7H60.7c-7.9 0-14.7.3-15 .7zM90 80.4V154h8l-.2-73.3-.3-73.2-3.7-.3-3.8-.3v73.5zM105 80.4V154h8l-.2-73.3-.3-73.2-3.7-.3-3.8-.3v73.5zM127.7 7.7c-.4.3-.7 33.4-.7 73.5V154h15V7h-6.8c-3.8 0-7.2.3-7.5.7zM172 80.4V154h8l-.2-73.3-.3-73.2-3.7-.3-3.8-.3v73.5zM194.7 7.6c-.4.4-.7 33.5-.7 73.6V154h8l-.2-73.3-.3-73.2-3-.3c-1.7-.2-3.4 0-3.8.4zM216.7 7.6c-.4.4-.7 33.5-.7 73.6V154h31l-.2-73.3-.3-73.2-14.6-.3c-8-.1-14.8.1-15.2.4zM43.7 191.8c-1.5 1-3.4 2.7-4.2 3.8-1.4 1.8-1.4 1.7-1.5-1.4 0-3-.2-3.2-3.5-3.2H31l.2 28.7.3 28.8h7l.3-9.7.3-9.7 3.6 2.5c9.6 6.5 22.4-.1 25.4-13.3 2.5-10.8-2.1-23.7-9.6-26.9-4.7-1.9-11.4-1.8-14.8.4zm12.1 5.8c3.7 2.6 5.2 6.7 5.2 14.4 0 8.2-1.7 12.3-6 14.5-10.4 5.4-18.9-4.9-16-19.2 1.5-7.1 5.4-11.3 10.7-11.3 2.1 0 4.9.7 6.1 1.6zM214.5 191.1c-1.1.6-3 2.1-4.2 3.2l-2.3 2v-2.6c0-2.4-.4-2.7-3.5-2.7H201v42h7v-13c0-17.8 2.2-22.5 11-23.7 3.2-.5 4.8-.1 7 1.6l2.9 2.1 1.7-2.6c1.6-2.4 1.6-2.6-.4-4.6-2.5-2.5-12.4-3.6-15.7-1.7zM111 238v3h40v-6h-40v3z"/></svg>